<svg width="310" height="310" viewBox="0 0 310 310" fill="none" xmlns="http://www.w3.org/2000/svg">
<path d="M297.917 64.645C286.727 51.343 266.067 45.917 226.611 45.917H83.386C43.027 45.917 22.017 51.693 10.869 65.855C0 79.663 0 100.008 0 128.166V181.835C0 236.386 12.896 264.083 83.386 264.083H226.612C260.828 264.083 279.788 259.295 292.054 247.556C304.633 235.518 310 215.863 310 181.835V128.166C310 98.471 309.159 78.006 297.917 64.645ZM199.021 162.41L133.983 196.401C132.529 197.161 130.939 197.538 129.351 197.538C127.553 197.538 125.759 197.054 124.17 196.092C121.178 194.279 119.351 191.036 119.351 187.538V119.774C119.351 116.282 121.173 113.042 124.159 111.228C127.146 109.414 130.861 109.29 133.96 110.9L198.998 144.672C202.307 146.39 204.385 149.806 204.39 153.533C204.394 157.263 202.325 160.684 199.021 162.41Z" fill="white"/>
</svg>
