<svg width="380" height="380" viewBox="0 0 380 380" fill="none" xmlns="http://www.w3.org/2000/svg">
<g id="letter 1">
<g clip-path="url(#clip0)">
<g id="home 1">
<g clip-path="url(#clip1)">
<g id="Group">
<g id="Group_2">
<path id="Vector" d="M176.5 121.155L46.3245 234.352C46.3245 234.512 46.2865 234.747 46.2104 235.067C46.1358 235.385 46.0962 235.616 46.0962 235.78V350.403C46.0962 354.542 47.5306 358.128 50.3988 361.148C53.2661 364.17 56.6616 365.691 60.586 365.691H147.519V273.99H205.482V365.694H292.414C296.338 365.694 299.738 364.177 302.601 361.148C305.469 358.131 306.909 354.542 306.909 350.403V235.78C306.909 235.144 306.826 234.664 306.68 234.352L176.5 121.155Z" fill="white"/>
<path id="Vector_2" d="M356.482 208.56L306.904 165.098V67.6665C306.904 65.4392 306.225 63.6074 304.863 62.1738C303.511 60.7418 301.775 60.0259 299.658 60.0259H256.191C254.077 60.0259 252.341 60.7418 250.982 62.1738C249.625 63.6074 248.947 65.44 248.947 67.6665V114.232L193.707 65.5153C188.883 61.3758 183.147 59.3065 176.505 59.3065C169.864 59.3065 164.128 61.3758 159.299 65.5153L-3.48473 208.56C-4.99374 209.831 -5.82081 211.543 -5.97464 213.692C-6.12768 215.84 -5.60036 217.716 -4.39109 219.307L9.64517 236.979C10.8544 238.411 12.4372 239.287 14.3998 239.607C16.2117 239.768 18.0236 239.209 19.8356 237.936L176.5 100.143L333.166 237.935C334.376 239.046 335.958 239.6 337.921 239.6H338.601C340.56 239.286 342.14 238.404 343.356 236.976L357.393 219.306C358.6 217.712 359.129 215.839 358.972 213.689C358.818 211.545 357.987 209.834 356.482 208.56Z" fill="white"/>
</g>
</g>
</g>
</g>
</g>
</g>
<defs>
<clipPath id="clip0">
<rect width="380" height="380" fill="white"/>
</clipPath>
<clipPath id="clip1">
<rect x="-6" y="20" width="365" height="385" fill="white"/>
</clipPath>
</defs>
</svg>
